# xmcd
# Track frame offsets:
# 150
# 13693
# 26075
# 35761
# 49652
# 62675
# 74308
# 86831
# 101549
# 117716
# 129785
# 141632
# 152812
# 165353
# 176801
#
# Disc length: 2548 seconds
# Revision: 0
# Processed by: cddbd v1.5.1PL0 Copyright (c) Steve Scherf et al.
# Submitted via: VisiTrax 2.9.10.228 - For more info visit www.synapsa.com
#
DISCID=d409f20f
DTITLE=don Gibson - CB90133
DYEAR=1900
DGENRE=Karaoke
TTITLE0=Gibson, Don - Too Soon To Know
TTITLE1=Gibson, Don - Oh Lonesome Me
TTITLE2=Gibson, Don - Blue Blue Day
TTITLE3=Gibson, Don - Just One Time
TTITLE4=Gibson, Don - Sea Of Heartbreak
TTITLE5=Gibson, Don - Lonesome Number One
TTITLE6=Gibson, Don - I Can Mend Your Broken Heart
TTITLE7=Gibson, Don - Rings Of Gold
TTITLE8=Gibson, Don - Woman (Sensuous Woman)
TTITLE9=Gibson, Don - Give Myself A Party
TTITLE10=Gibson, Don - Who Cares
TTITLE11=Gibson, Don - Don't Tell Me Your Troubles
TTITLE12=Gibson, Don - Sweet Dreams
TTITLE13=Gibson, Don - I'm Hurting, (Yes)
TTITLE14=Gibson, Don - Touch The Morning
EXTD=
EXTT0=
EXTT1=
EXTT2=
EXTT3=
EXTT4=
EXTT5=
EXTT6=
EXTT7=
EXTT8=
EXTT9=
EXTT10=
EXTT11=
EXTT12=
EXTT13=
EXTT14=
PLAYORDER=
